<svg xmlns="http://www.w3.org/2000/svg" viewBox="0 0 444.08 188.73"><defs><style>.cls-1{fill:#fff;}</style></defs><title>Fichier 5mc</title><g id="Calque_2" data-name="Calque 2"><g id="Layer_1" data-name="Layer 1"><path class="cls-1" d="M160.83,165a4.54,4.54,0,0,1,4.6,3.9h2.1a6.51,6.51,0,0,0-6.7-5.7,6.8,6.8,0,0,0-4.9,2c-1.8,1.8-1.8,3.7-1.8,7.8s0,6,1.8,7.8a6.8,6.8,0,0,0,4.9,2,6.58,6.58,0,0,0,6.7-5.7h-2.1a4.64,4.64,0,0,1-7.9,2.5c-1.3-1.2-1.4-2.6-1.4-6.6s.2-5.4,1.4-6.6A4.37,4.37,0,0,1,160.83,165Zm36.7,4.2a5,5,0,0,0-4.4,2.2,4.54,4.54,0,0,0-4.1-2.2,4.78,4.78,0,0,0-3.8,1.6v-1.5h-2v13.29h2v-8.2c0-2.3,1.3-3.5,3.3-3.5s3.3,1.11,3.3,3.5v8.2h2v-8.39a3,3,0,0,1,3.3-3.3c2,0,3.3,1.1,3.3,3.5v8.2h1.9v-8.5a4.49,4.49,0,0,0-4.8-4.9Zm-53.8,1.39a4,4,0,0,0-3.7-1.7,4.7,4.7,0,0,0-3.3,1.2c-1.31,1.41-1.61,3.41-1.61,5.61s.31,4.3,1.61,5.6a4.46,4.46,0,0,0,3.2,1.2,4.21,4.21,0,0,0,3.7-1.7v2.1c0,2.3-1.1,4.1-3.7,4.1a4.08,4.08,0,0,1-3.2-1.3l-1.3,1.2a5.74,5.74,0,0,0,4.5,1.8c3.5,0,5.6-2.4,5.69-5.7v-13.7h-1.89Zm-3.5,10.31c-2.9,0-3.3-2.5-3.3-5s.4-5,3.3-5,3.3,2.5,3.3,5S143.13,180.93,140.23,180.93Zm38.6-10.2a5.56,5.56,0,0,0-7.6,0c-1.3,1.4-1.6,3.2-1.6,5.3s.2,3.9,1.6,5.3a5.56,5.56,0,0,0,7.6,0,6.65,6.65,0,0,0,1.6-5.3C180.43,174,180.23,172.13,178.83,170.73Zm-1.3,9.3a3.38,3.38,0,0,1-4.8,0c-1-1-1.1-2.6-1.1-4.1s.1-3.1,1.1-4.1a3.38,3.38,0,0,1,4.8,0c.9,1,1,2.7,1.1,4.1S178.53,179,177.53,180Zm1.5-36.4a55.65,55.65,0,0,0,8.9-.7c13.2-2.6,23.9-10.2,33.4-17.9a160.76,160.76,0,0,0,27.3-28.9,3.06,3.06,0,0,0-.7-4.1,3.1,3.1,0,0,0-4.3.7,160.63,160.63,0,0,1-30.1,30.4c-9.3,6.9-21.8,14.8-35.7,14.6-4.8-.2-11.71-1.4-17.4-6.1-5-4.1-6.9-10.2-8.4-16.1-3.3-13.6-1.5-28,5.7-45.3,9.1-22.3,19.4-37.9,32.6-49.3,10.1-8.8,21.4-13.9,32.7-14.7,4.4-.2,9.9,0,14.1,3.3,2.7,2.1,4.2,5.2,4.9,10,1.2,10-2.1,19.6-5.4,27.7A2.81,2.81,0,0,0,237,50a2.86,2.86,0,0,0,2.8,1,3.07,3.07,0,0,0,2.4-2c2.5-5.9,10-25.9,3.2-38.6-2.7-5.1-7.4-8.4-13.9-9.7-14.1-3-28.1,4-35.2,8.4-8.4,5.1-16.3,12.5-24.2,22.6a150.33,150.33,0,0,0-11.4,18.1c-7.9,15.8-14.6,30.2-16.2,46.6-.7,8.7-.4,25.2,9.2,37C160.33,141.83,171,143.63,179,143.63Zm-78.6,25.7c-3.4,0-5.5,2.5-5.5,6.8,0,4.7,2.3,6.8,5.8,6.8a6,6,0,0,0,4.89-2.1l-1.29-1.2a4.69,4.69,0,0,1-3.5,1.5c-2.47,0-3.87-1.67-3.9-4.5h9v-.9C105.93,171.83,103.83,169.33,100.43,169.33Zm-3.5,5.7a4.56,4.56,0,0,1,.4-2.2,3.4,3.4,0,0,1,6.2,0,4.56,4.56,0,0,1,.4,2.2Zm-22-4.1v-1.6h-2v13.3h2v-8.2c0-2.1,1.2-3.6,3.2-3.6a2.9,2.9,0,0,1,2.3,1l1.4-1.5a4.28,4.28,0,0,0-3.2-1.2A4.46,4.46,0,0,0,74.93,170.93Zm18.5-1.6H91l-6,6.9v-12.9H83v19.3h2v-3.8l2.6-3,4.2,6.8h2.4l-5.3-8.2Zm-29.2-.2c-2.2,0-3.5.5-4.7,2l1.3,1.2a3.6,3.6,0,0,1,3.4-1.5c2.4,0,3.4.9,3.4,2.9V175h-4c-3,0-4.6,1.5-4.6,3.8a4.27,4.27,0,0,0,1,2.7,5.25,5.25,0,0,0,3.8,1.2,4.64,4.64,0,0,0,3.8-1.4v1.2h1.9v-9C69.53,170.63,67.83,169.13,64.23,169.13Zm3.5,8.9a2.88,2.88,0,0,1-.7,2.3,4.12,4.12,0,0,1-3,.9c-2.2,0-3.1-.8-3.1-2.3s1-2.4,3-2.4h3.8ZM48,177l-6.3-13.7h-2.1v19.3h2.1v-14.7l5.4,11.6h1.8l5.3-11.6v14.7h2v-19.3h-2.1Zm172-7.8a5,5,0,0,0-4.4,2.2,4.54,4.54,0,0,0-4.1-2.2,4.78,4.78,0,0,0-3.8,1.6v-1.5h-2v13.29h2v-8.2c0-2.3,1.3-3.5,3.3-3.5s3.3,1.11,3.3,3.5v8.2h2v-8.39a3.1,3.1,0,0,1,3.3-3.3c2,0,3.3,1.1,3.3,3.5v8.2h1.9v-8.5a4.49,4.49,0,0,0-4.8-4.9Zm-92.6,0a4.57,4.57,0,0,0-3.7,1.6v-1.5h-2v13.3h2v-8.2c0-2.3,1.3-3.5,3.3-3.5s3.3,1.1,3.3,3.5v8.2h1.9v-8.5a5.14,5.14,0,0,0-1.4-3.7A4.7,4.7,0,0,0,127.43,169.23Zm-11.2-3.7h2.2v-2.2h-2.2Zm26.69-116.1c-.7,3.1-1.4,6.1-2.1,9.2l-3.3,15.3c-2.7,12.7-5.5,25.8-8.2,38.9-3.2,15.3-5.7,29.6-7.6,43.9l-.2,1.7h6.2l.2-1.3c2.6-17.6,5.2-32.9,8.3-48.3,2.3-11.3,4.7-22.5,7.1-33.3,1.5-6.8,3.1-13.9,4.6-20.9.61-3.5,1.41-7.3,2.21-11,1.4-6.7,2.9-13.6,3.9-20.7.6-5.6,1.9-17.3-6.2-20.3-4.71-1.7-9.3,1.1-12.71,3.1l-.79.5c-6.5,4.1-11.4,10.6-14.6,15-3.8,5.4-7,10.5-10.4,15.9l-14.9,24.3c-3.1,5.3-6,10.6-8.7,16,2.89-14.6,5.6-29.5,6.5-44.6.89-7.7.6-13.8-1-18.5a8.6,8.6,0,0,0-4.11-5.4c-2.2-1.1-4.89-1.1-8.09,0-8.11,2.8-14.2,10.2-19.61,16.7l-.59.7c-.41.6-.91,1.1-1.41,1.7l-.09.1V28c.29-4.8-.41-8.5-2.41-11.3-3.8-4.8-10.39-5.6-18.89-2.3a65.35,65.35,0,0,0-23.41,16.1C7.33,35.83.83,44.23,0,53.83A2.82,2.82,0,0,0,.62,56a3.28,3.28,0,0,0,1.8,1,3.19,3.19,0,0,0,3.5-2.9c.5-6.3,4.61-13.2,12.41-21,5.09-4.9,13.09-11.3,22.29-14.1,3.1-1,5.6-1.4,7.8-.1,1.9,1,2.9,3.3,2.9,6.7a43.15,43.15,0,0,1-2.2,14.2c-3,4.7-5.7,9.2-7.9,13.4A190.32,190.32,0,0,0,28,80.73c-7,18.3-14.3,37.3-16.1,57.5a2.53,2.53,0,0,0,1.8,2.89,3.2,3.2,0,0,0,3.8-1.29c3.3-6,5.3-12.1,7.3-18.5.4-1.21.8-2.5,1.3-3.8,2.3-8.4,4.6-15.8,7.1-22.5,2.7-7.4,6.1-14.7,9.3-21.6,3.5-7.5,7.1-15.4,10-23.6l2-7c.8-1,1.3-2,1.9-2.9a24,24,0,0,1,1.9-2.9c5.3-7.8,11.3-15.7,19.3-20.9,2.5-1.6,5.2-2.3,7-1.9a3.72,3.72,0,0,1,1,2.1v.1c1.8,6,1.1,12.6.4,18.4-1.6,19.1-5.5,37.9-9.4,56.1L72,111a98.47,98.47,0,0,0-3.2,15.7,3.14,3.14,0,0,0,2.2,3.4,2.64,2.64,0,0,0,3.3-1l.9-1.2.1-.4c.5-3.4,1.2-6.8,1.9-10.2.3-1.3.5-2.6.8-3.8a8.83,8.83,0,0,0,.6-2.6,5.87,5.87,0,0,1,.5-2l.1-.1c8.1-26,23.7-50.7,37.6-72.4,1.4-2,2.8-4.1,4.1-6.1a103.79,103.79,0,0,1,8.7-11.9q7.2-8.85,14.7-10.2a2.61,2.61,0,0,1,2.6.5c.9.8,2.8,4,1,15.2C146.72,32.43,144.82,41,142.92,49.43Zm-26.59,133.2h2v-13.3h-2ZM111,165.12h-2v4.21h-1.7v1.5H109V179c0,2,1.1,3.6,3.4,3.6h1.4v-1.7h-1c-1.2,0-1.8-.8-1.8-2v-8.1h2.8v-1.5H111Zm206.7,4.11a4.57,4.57,0,0,0-3.7,1.6v-1.5h-2v13.3h2v-8.2c0-2.3,1.3-3.5,3.3-3.5s3.3,1.1,3.3,3.5v8.2h1.9v-8.5a5.14,5.14,0,0,0-1.4-3.7A4.7,4.7,0,0,0,317.73,169.23Zm69.7,1.49a4.27,4.27,0,0,0-3.8-1.7,4.72,4.72,0,0,0-3.3,1.2c-1.3,1.4-1.6,3.61-1.6,5.7s.2,4.31,1.6,5.7a4.86,4.86,0,0,0,3.3,1.21,4.37,4.37,0,0,0,3.8-1.8v1.6h2v-19.3h-2Zm-3.3,10.41c-2.9,0-3.4-2.5-3.4-5.1s.5-5.1,3.4-5.1,3.3,2.5,3.3,5.1S387,181.13,384.13,181.13Zm-10.1-3.6c0,2.3-1.3,3.5-3.3,3.5s-3.3-1.1-3.3-3.5v-8.2h-2v8.6a5.14,5.14,0,0,0,1.4,3.7,4.7,4.7,0,0,0,3.4,1.2,4.86,4.86,0,0,0,3.8-1.7v1.5h2v-13.3h-2Zm-13.7-12.41h-2v4.21h-1.71v1.5h1.71V179c0,2,1.1,3.6,3.4,3.6h1.39v-1.7h-1c-1.2,0-1.79-.8-1.79-2v-8.1h2.79v-1.5h-2.79Zm-9.9,7-2.1-.3a6.2,6.2,0,0,1-2.6-1.1,2.79,2.79,0,0,1-.9-2.2c0-2.2,1.5-3.6,4.1-3.6a6.11,6.11,0,0,1,4.5,1.7l1.3-1.3a7.48,7.48,0,0,0-5.7-2.1c-3.8,0-6.2,2.1-6.2,5.4a4.61,4.61,0,0,0,1.5,3.6,5.93,5.93,0,0,0,3.5,1.5l2.2.4a4.22,4.22,0,0,1,2.5.9,3.09,3.09,0,0,1,.9,2.4c0,2.3-1.8,3.6-4.6,3.6a6.66,6.66,0,0,1-5.3-2.1l-1.4,1.4a8.39,8.39,0,0,0,6.6,2.5c4,0,6.6-2.1,6.8-5.5a4.64,4.64,0,0,0-1.6-3.8C353.13,172.73,352.23,172.43,350.43,172.13Zm-113.8,5.4c0,2.3-1.3,3.5-3.3,3.5s-3.3-1.1-3.3-3.5v-8.2h-2v8.6a5.14,5.14,0,0,0,1.4,3.7,4.7,4.7,0,0,0,3.4,1.2,4.86,4.86,0,0,0,3.8-1.7v1.5h2v-13.3h-2Zm156.3,5.1h2v-13.3h-2ZM442.13,91c-7.2,7.9-14.9,12.4-22.9,12.5.5-.8.9-1.5,1.4-2.4a56.79,56.79,0,0,0,5.2-12.7,44.76,44.76,0,0,0,1.6-10.6c0-1,0-2-.1-3v-.1a10.08,10.08,0,0,0-3.2-6.4,9.06,9.06,0,0,0-6.2-2.2,16.44,16.44,0,0,0-7.2,1.6,21.1,21.1,0,0,0-5.8,4.1,29.73,29.73,0,0,0-4.3,5.6,31.14,31.14,0,0,0-2.8,6.2,28.2,28.2,0,0,0-1.1,5.5,46.67,46.67,0,0,0-2.7,6.2,157.81,157.81,0,0,1-28.4,28.2c-9.3,6.9-21.8,14.8-35.7,14.6-4.8-.2-11.7-1.4-17.4-6.1-5-4.1-6.91-10.2-8.41-16.1-3.29-13.6-1.5-28,5.71-45.3,9.09-22.3,19.4-37.9,32.59-49.3,10.1-8.8,21.41-13.9,32.7-14.7,4.41-.2,9.91,0,14.1,3.3,2.7,2.1,4.2,5.2,4.9,10,1.21,10-2.09,19.6-5.4,27.7a2.69,2.69,0,0,0,1.6,3.6,3.13,3.13,0,0,0,4-1.8c2.5-5.9,10-25.9,3.2-38.6-2.7-5.1-7.4-8.4-13.9-9.7-14.1-3-28.1,4-35.2,8.4-8.4,5.1-16.3,12.5-24.2,22.6a150.33,150.33,0,0,0-11.4,18.1c-7.9,15.8-14.6,30.2-16.2,46.6-.7,8.7-.4,25.2,9.2,37,6.6,8.4,17.3,10.2,25.3,10.2a55.65,55.65,0,0,0,8.9-.7c13.2-2.6,23.9-10.2,33.4-17.9a148,148,0,0,0,18.8-18.4c0,.6.1,1.3.1,2a9.84,9.84,0,0,0,2.7,5.9,8.14,8.14,0,0,0,6,2.4,14.59,14.59,0,0,0,7.9-2.4,25.75,25.75,0,0,0,6.1-5.4c9.8,1.9,19.9-3,28.3-12.8C444.93,94.63,443.73,89.23,442.13,91ZM408,107.93c-2.4,2.4-4.7,3.6-7.1,3.6-.4,0-1.7,0-2.4-3.5,0-.6-.1-1.1-.1-1.7a28.4,28.4,0,0,1,.8-6.6,11.07,11.07,0,0,0,4.3,4,31.62,31.62,0,0,0,5.2,3.5A2.31,2.31,0,0,0,408,107.93Zm7-9.5a41,41,0,0,1-2.6,4.1c-.3-.1-.5-.1-.8-.2-1.5-.8-2.8-1.4-4.1-2.2a2.36,2.36,0,0,0-.6-.9l-.3-.3-.3-.2c-2-1.1-3.2-3.6-3.5-7.5v-.5c.8-1.5,1.7-2.8,2.5-4.1l.2-.2.1-.3a2.54,2.54,0,0,0,.2-1.2,2.66,2.66,0,0,0-1-2.2.1.1,0,0,1,.1-.1,31.37,31.37,0,0,1,3.4-5.5,18.77,18.77,0,0,1,4.5-4,9.86,9.86,0,0,1,4.9-1.4,3.49,3.49,0,0,1,2.8,1.2,6.74,6.74,0,0,1,1.1,4.3,35.4,35.4,0,0,1-1.7,9.8A59.39,59.39,0,0,1,415,98.43Zm-11.9,70.8a5.27,5.27,0,0,0-3.8,1.5c-1.3,1.4-1.6,3.2-1.6,5.3s.2,3.9,1.6,5.3a5.56,5.56,0,0,0,7.6,0c1.4-1.4,1.6-3.3,1.6-5.3s-.2-3.9-1.6-5.3A5.27,5.27,0,0,0,403.13,169.23Zm2.4,10.8a3.38,3.38,0,0,1-4.8,0c-1-1-1.1-2.6-1.1-4.1s.1-3.1,1.1-4.1a3.38,3.38,0,0,1,4.8,0c1,1,1.1,2.7,1.1,4.1S406.53,179,405.53,180Zm-12.7-14.5H395v-2.2h-2.2Zm-89,3.7a5.27,5.27,0,0,0-3.8,1.5c-1.3,1.4-1.6,3.2-1.6,5.3s.2,3.9,1.6,5.3a5.56,5.56,0,0,0,7.6,0c1.4-1.4,1.6-3.3,1.6-5.3s-.2-3.9-1.6-5.3A5.27,5.27,0,0,0,303.83,169.23Zm2.4,10.8a3.39,3.39,0,0,1-4.81,0c-1-1-1.09-2.6-1.09-4.1s.09-3.1,1.09-4.1a3.39,3.39,0,0,1,4.81,0c1,1,1.1,2.7,1.1,4.1S307.23,179,306.23,180Zm25.19-5-2.09-.2c-1.6-.2-2.3-.9-2.3-2,0-1.4,1-2.2,3-2.2a5.86,5.86,0,0,1,3.5,1.1l1.3-1.3A8.05,8.05,0,0,0,330,169c-2.81,0-4.91,1.5-4.91,3.9,0,2.2,1.41,3.4,4,3.6l2.21.2c1.5.2,2.2.8,2.2,2,0,1.6-1.3,2.4-3.5,2.4a5.5,5.5,0,0,1-4.1-1.5l-1.3,1.3a7.56,7.56,0,0,0,5.5,1.9c3.2,0,5.4-1.5,5.2-4.2C335.33,176.13,333.72,175.23,331.42,175Zm-75.49,7.6h2v-13.3h-2Zm-.1-17.1H258v-2.2h-2.2Zm-8.1,3.7a4.57,4.57,0,0,0-3.7,1.6v-1.5h-2v13.3h2v-8.2c0-2.3,1.3-3.5,3.3-3.5s3.3,1.1,3.3,3.5v8.2h1.9v-8.5a5.14,5.14,0,0,0-1.4-3.7A4.7,4.7,0,0,0,247.73,169.23Zm18.9,1.7a3.73,3.73,0,0,1,3.1,1.5l1.3-1.2a5.37,5.37,0,0,0-4.4-2c-3.4,0-5.9,2.2-5.9,6.8s2.5,6.8,5.9,6.8a5.57,5.57,0,0,0,4.4-1.9l-1.3-1.3a3.73,3.73,0,0,1-3.1,1.5,3.62,3.62,0,0,1-3.1-1.5,5.35,5.35,0,0,1-.9-3.6,6,6,0,0,1,.9-3.6A3.62,3.62,0,0,1,266.63,170.93Zm26.8-5.4h2.2v-2.2h-2.2Zm-2.8-86-3.7,1.4.3,1.5.1.2a3.2,3.2,0,0,1-1.3,3.9c-2.8,1.7-5.8-2.1-5.8-2.2s-.1-.1-.1-.2c.4-.6.9-1.2,1.3-1.8a15.1,15.1,0,0,0,1.6-3.1,23.86,23.86,0,0,0,1.4-8.1v-2.3l-4.4.3.1,1.7v.3a17.85,17.85,0,0,1-1.1,6.4,10.08,10.08,0,0,1-1.2,2.3,1.76,1.76,0,0,0-.4.5c-1.9-2.8-4.5-6.4-6.6-9.4l.3-.2c2.5-1.6,5.6-3.6,6.4-7.7a7.25,7.25,0,0,0-1.2-5.7,7.39,7.39,0,0,0-4.9-3.2A7.72,7.72,0,0,0,263,58c-1.61,2.8-1.3,7.1.8,10.3a5.33,5.33,0,0,0,.7,1.1,23.88,23.88,0,0,0-4.91,3.4c-3.7,3.4-5.7,9.5-1.29,14.9a10.32,10.32,0,0,0,8.4,3.8c3.7,0,7.3-1.5,8.8-2.9a17.38,17.38,0,0,0,1.5-1.3c2.7,3.2,7.1,5.3,11.2,2.7a7.49,7.49,0,0,0,3.1-9Zm-23.9-19.2a3.26,3.26,0,0,1,3.1-1.9c.3,0,.6.1.9.1a3.75,3.75,0,0,1,2.1,1.4,2.89,2.89,0,0,1,.5,2.4c-.4,2.2-2.3,3.4-4.5,4.8l-.3.2c-.1,0-.1.1-.2.1-.4-.7-.8-1.2-.9-1.4C266.23,64.23,265.93,61.63,266.73,60.33Zm6.3,24.9c-1.6,1.3-8.1,3.7-11.3-.3-3-3.6-.8-7.3.9-8.9a18.07,18.07,0,0,1,4.4-3c2.4,3.4,5.5,7.9,7.59,10.7A11,11,0,0,1,273,85.23Zm4.2,83.9c-2.2,0-3.5.5-4.7,2l1.3,1.2a3.6,3.6,0,0,1,3.4-1.5c2.4,0,3.4.9,3.4,2.9V175h-4c-3,0-4.6,1.5-4.6,3.8a3.78,3.78,0,0,0,1,2.7,5.25,5.25,0,0,0,3.8,1.2,4.64,4.64,0,0,0,3.8-1.4v1.2h1.9v-9C282.53,170.63,280.83,169.13,277.23,169.13Zm3.5,8.9a2.88,2.88,0,0,1-.7,2.3,4.15,4.15,0,0,1-3,.9c-2.2,0-3.1-.8-3.1-2.3s1-2.4,3-2.4h3.8Zm12.8,4.6h2v-13.3h-2Zm-5.3-17.51h-2v4.21h-1.7v1.5h1.7V179c0,2,1.1,3.6,3.4,3.6H291v-1.7h-1c-1.2,0-1.8-.8-1.8-2v-8.1H291v-1.5h-2.8Z"/></g></g></svg>